<svg width="283" height="134" viewBox="0 0 283 134" fill="none" xmlns="http://www.w3.org/2000/svg">
<path d="M184.575 0L145.025 13.6042V60.9548C143.3 60.1412 141.004 60.0122 138.721 60.7731C134.774 62.0886 132.375 65.5548 133.361 68.5154C134.348 71.476 138.347 72.8084 142.295 71.4929C145.819 70.3187 148.101 67.4306 147.85 64.7177V22.0924L181.75 10.4186V41.1931C180.022 40.3682 177.714 40.2335 175.42 40.9981C171.472 42.3136 169.073 45.7799 170.06 48.7405C171.047 51.7011 175.046 53.0335 178.993 51.718C182.313 50.6116 184.529 47.9843 184.566 45.4164H184.575V0ZM113.008 0.434107V40.9256C111.248 40.0857 108.789 40.0113 106.451 40.791C102.432 42.1309 99.987 45.6612 100.992 48.6764C101.996 51.6917 106.07 53.0495 110.091 51.7095C113.472 50.5824 115.785 47.9071 115.823 45.2912H115.833V13.6174C115.833 13.6174 128.005 17.1401 131.842 30.5673C131.842 15.222 118.658 12.6757 113.008 0.434107ZM130.357 66.3505H97V68.2338H130.406C130.309 67.6109 130.292 66.9778 130.357 66.3505ZM187.4 68.2338V66.3505H150.581C150.472 66.9984 150.285 67.6308 150.024 68.2338H187.4ZM99.8984 52.2256H97V54.1089H102.528C101.51 53.6371 100.618 53.0015 99.8984 52.2256ZM187.4 54.1089V52.2256H183.851C182.93 52.9827 181.862 53.6258 180.671 54.1089H187.4ZM168.944 52.2256H150.675V54.1089H171.537C170.558 53.6571 169.677 53.0172 168.944 52.2256V52.2256ZM114.976 52.2256C113.998 53.0105 112.909 53.6452 111.744 54.1089H142.2V52.2256H114.976ZM118.658 38.1006H142.2V39.984H118.658V38.1006ZM105.593 38.1006H97V39.984H101.944C102.985 39.2071 104.199 38.5639 105.559 38.11C105.57 38.1063 105.581 38.1044 105.593 38.1006ZM150.675 39.984H171.224C172.237 39.2707 173.35 38.7095 174.526 38.3182L175.276 38.1006H150.675V39.984ZM125.485 23.9757H118.658V25.859H126.752C126.35 25.1885 125.926 24.5614 125.485 23.9757ZM97 23.9757H110.183V25.859H97V23.9757ZM150.675 25.859H178.925V23.9757H151.057L150.675 24.1075V25.859ZM134.244 25.859H142.2V23.9757H133.821L134.244 25.859ZM125.941 11.7341H142.917C143.238 11.3688 143.648 11.0927 144.107 10.9327L147.253 9.85074H124.013L125.941 11.7341ZM97 9.85074H110.183V11.7341H97V9.85074Z" fill="#FCE38F"/>
<path d="M21.9828 99.0898V101.973H14.2484V125H9.99454V101.973H2.26016V99.0898H21.9828ZM31.8477 115.965C31.8477 116.785 31.8828 117.559 31.9531 118.285C32.0234 118.988 32.1758 119.609 32.4102 120.148C32.6445 120.687 32.9961 121.121 33.4648 121.449C33.9336 121.777 34.5547 121.941 35.3281 121.941C35.6328 121.941 36.0664 121.895 36.6289 121.801C37.1914 121.707 37.7305 121.555 38.2461 121.344V123.945C37.6367 124.273 36.9688 124.566 36.2422 124.824C35.5391 125.059 34.8359 125.176 34.1328 125.176C33.5703 125.176 33.0664 125.117 32.6211 125C32.1758 124.906 31.7539 124.754 31.3555 124.543C30.9805 124.309 30.6172 124.051 30.2656 123.77C29.9141 123.488 29.5625 123.172 29.2109 122.82C28.8125 122.422 28.4961 121.965 28.2617 121.449C28.0273 120.91 27.8516 120.359 27.7344 119.797C27.6406 119.211 27.582 118.625 27.5586 118.039C27.5586 117.453 27.5586 116.879 27.5586 116.316V105.172H31.8477V115.965ZM43.9766 105.172V125H40.1445L39.6875 122.961V105.172H43.9766ZM54.65 105.172L55.107 107.176V125H50.8531V105.172H54.65ZM65.6188 107.352C66.0172 107.75 66.3219 108.219 66.5328 108.758C66.7672 109.273 66.9313 109.824 67.025 110.41C67.1422 110.973 67.2125 111.547 67.2359 112.133C67.2594 112.719 67.2711 113.293 67.2711 113.855V124.297V125H62.982V114.207C62.982 113.41 62.9469 112.648 62.8766 111.922C62.8063 111.195 62.6422 110.551 62.3844 109.988C62.1266 109.426 61.775 108.992 61.3297 108.687C60.8844 108.359 60.2633 108.195 59.4664 108.195C59.1383 108.195 58.693 108.254 58.1305 108.371C57.5914 108.465 57.0641 108.629 56.5484 108.863V106.156C57.1813 105.828 57.8609 105.547 58.5875 105.312C59.3375 105.078 60.0641 104.961 60.7672 104.961C61.8219 104.961 62.7125 105.184 63.4391 105.629C64.1656 106.051 64.8922 106.625 65.6188 107.352ZM83.2531 104.996C84.5188 105.113 85.6555 105.453 86.6633 106.016C87.6945 106.578 88.5734 107.305 89.3 108.195C90.0266 109.086 90.5773 110.105 90.9523 111.254C91.3508 112.402 91.55 113.598 91.55 114.84C91.55 115.402 91.5148 115.965 91.4445 116.527H79.3859V113.434H87.507C87.507 112.824 87.4016 112.238 87.1906 111.676C87.0031 111.113 86.7102 110.598 86.3117 110.129C85.9367 109.637 85.4914 109.227 84.9758 108.898C84.4602 108.57 83.8859 108.371 83.2531 108.301V104.996ZM83.1125 121.695C83.3703 121.695 83.6867 121.672 84.0617 121.625C84.4602 121.555 84.8703 121.449 85.2922 121.309C85.7375 121.145 86.1711 120.945 86.593 120.711C87.0383 120.477 87.425 120.195 87.7531 119.867L89.3 122.223C88.5266 123.184 87.6242 123.91 86.593 124.402C85.5617 124.895 84.2492 125.141 82.6555 125.141C81.3664 125.141 80.1594 124.883 79.0344 124.367C77.9094 123.828 76.9484 123.102 76.1516 122.187C75.3547 121.273 74.7219 120.207 74.2531 118.988C73.7844 117.77 73.55 116.457 73.55 115.051C73.55 113.715 73.7609 112.449 74.1828 111.254C74.6281 110.059 75.2258 109.016 75.9758 108.125C76.7258 107.211 77.593 106.473 78.5773 105.91C79.5852 105.348 80.6633 105.031 81.8117 104.961V108.336C80.9445 108.5 80.2297 108.852 79.6672 109.391C79.1047 109.93 78.6594 110.551 78.3313 111.254C78.0266 111.934 77.8039 112.637 77.6633 113.363C77.5461 114.09 77.4875 114.711 77.4875 115.227C77.4875 116.141 77.593 116.996 77.8039 117.793C78.0383 118.566 78.3898 119.246 78.8586 119.832C79.3273 120.395 79.9016 120.852 80.5813 121.203C81.2844 121.531 82.1281 121.695 83.1125 121.695ZM97.8289 110.832C97.8289 109.941 97.993 109.145 98.3211 108.441C98.6492 107.715 99.1063 107.105 99.6922 106.613C100.278 106.098 100.934 105.699 101.661 105.418C102.411 105.113 103.184 104.926 103.981 104.855V108.371C103.372 108.488 102.891 108.734 102.54 109.109C102.212 109.484 102.048 110.012 102.048 110.691C102.048 111.254 102.223 111.711 102.575 112.062C102.95 112.391 103.419 112.684 103.981 112.941V116.703C103.583 116.586 103.173 116.457 102.751 116.316C102.352 116.152 101.954 115.977 101.555 115.789C100.313 115.133 99.3758 114.441 98.743 113.715C98.1336 112.988 97.8289 112.027 97.8289 110.832ZM109.571 109.355C108.938 109.027 108.259 108.781 107.532 108.617C106.829 108.453 106.126 108.348 105.423 108.301V104.82C106.477 104.867 107.45 105.02 108.341 105.277C109.231 105.512 110.098 105.898 110.942 106.437L109.571 109.355ZM99.6922 120.57C100.161 120.898 100.712 121.203 101.345 121.484C102.001 121.766 102.821 121.906 103.805 121.906H103.981V125.176C103.395 125.176 102.856 125.152 102.364 125.105C101.872 125.082 101.38 125.012 100.888 124.895C100.419 124.754 99.9383 124.566 99.4461 124.332C98.9539 124.098 98.4383 123.793 97.8992 123.418L99.6922 120.57ZM105.423 113.504C106.126 113.738 106.841 113.996 107.567 114.277C108.294 114.559 108.95 114.91 109.536 115.332C110.145 115.754 110.638 116.281 111.013 116.914C111.411 117.523 111.61 118.297 111.61 119.234C111.61 120.148 111.446 120.945 111.118 121.625C110.79 122.305 110.345 122.891 109.782 123.383C109.243 123.875 108.598 124.262 107.848 124.543C107.098 124.824 106.29 125.012 105.423 125.105V121.766C106.22 121.625 106.829 121.379 107.251 121.027C107.696 120.652 107.919 120.16 107.919 119.551C107.919 118.941 107.673 118.473 107.18 118.145C106.712 117.793 106.126 117.488 105.423 117.23V113.504ZM122.284 125H117.995V105.172H122.284V125ZM122.67 98.8437C122.67 99.5468 122.424 100.145 121.932 100.637C121.44 101.105 120.842 101.34 120.139 101.34C119.436 101.34 118.838 101.094 118.346 100.602C117.877 100.109 117.643 99.5234 117.643 98.8437C117.643 98.1406 117.889 97.5429 118.381 97.0508C118.873 96.5586 119.459 96.3125 120.139 96.3125C120.842 96.3125 121.44 96.5586 121.932 97.0508C122.424 97.5429 122.67 98.1406 122.67 98.8437ZM128.211 105.172H133.027L137.211 119.27V125.141H135.172L128.211 105.172ZM142.871 105.172H147.652L140.691 125.141H138.652V119.27L142.871 105.172ZM162.509 104.996C163.775 105.113 164.912 105.453 165.92 106.016C166.951 106.578 167.83 107.305 168.556 108.195C169.283 109.086 169.834 110.105 170.209 111.254C170.607 112.402 170.806 113.598 170.806 114.84C170.806 115.402 170.771 115.965 170.701 116.527H158.642V113.434H166.763C166.763 112.824 166.658 112.238 166.447 111.676C166.259 111.113 165.966 110.598 165.568 110.129C165.193 109.637 164.748 109.227 164.232 108.898C163.716 108.57 163.142 108.371 162.509 108.301V104.996ZM162.369 121.695C162.627 121.695 162.943 121.672 163.318 121.625C163.716 121.555 164.127 121.449 164.548 121.309C164.994 121.145 165.427 120.945 165.849 120.711C166.295 120.477 166.681 120.195 167.009 119.867L168.556 122.223C167.783 123.184 166.88 123.91 165.849 124.402C164.818 124.895 163.505 125.141 161.912 125.141C160.623 125.141 159.416 124.883 158.291 124.367C157.166 123.828 156.205 123.102 155.408 122.187C154.611 121.273 153.978 120.207 153.509 118.988C153.041 117.77 152.806 116.457 152.806 115.051C152.806 113.715 153.017 112.449 153.439 111.254C153.884 110.059 154.482 109.016 155.232 108.125C155.982 107.211 156.849 106.473 157.834 105.91C158.841 105.348 159.92 105.031 161.068 104.961V108.336C160.201 108.5 159.486 108.852 158.923 109.391C158.361 109.93 157.916 110.551 157.588 111.254C157.283 111.934 157.06 112.637 156.92 113.363C156.802 114.09 156.744 114.711 156.744 115.227C156.744 116.141 156.849 116.996 157.06 117.793C157.295 118.566 157.646 119.246 158.115 119.832C158.584 120.395 159.158 120.852 159.838 121.203C160.541 121.531 161.384 121.695 162.369 121.695ZM192.378 104.082C191.839 103.473 191.265 103.016 190.655 102.711C190.046 102.406 189.39 102.23 188.687 102.184V98.7031C191.312 98.8203 193.515 99.7461 195.296 101.48L192.378 104.082ZM188.687 121.695C189.39 121.625 190.046 121.437 190.655 121.133C191.288 120.828 191.863 120.383 192.378 119.797L195.296 122.363C194.405 123.23 193.409 123.898 192.308 124.367C191.206 124.836 189.999 125.105 188.687 125.176V121.695ZM177.296 111.922C177.296 109.836 177.542 107.996 178.034 106.402C178.55 104.809 179.253 103.461 180.144 102.359C181.034 101.258 182.077 100.402 183.273 99.7929C184.491 99.1836 185.816 98.8203 187.245 98.7031V102.219C186.472 102.336 185.745 102.605 185.066 103.027C184.386 103.426 183.788 104.012 183.273 104.785C182.757 105.559 182.347 106.543 182.042 107.738C181.761 108.91 181.609 110.305 181.585 111.922C181.609 113.562 181.761 114.969 182.042 116.141C182.347 117.312 182.757 118.297 183.273 119.094C183.788 119.891 184.386 120.5 185.066 120.922C185.769 121.344 186.495 121.602 187.245 121.695V125.141C185.816 125.047 184.491 124.695 183.273 124.086C182.077 123.477 181.034 122.621 180.144 121.52C179.253 120.418 178.55 119.07 178.034 117.477C177.542 115.859 177.296 114.008 177.296 111.922ZM206.251 118.953C206.251 119.75 206.356 120.383 206.567 120.852C206.778 121.297 207.071 121.637 207.446 121.871C207.821 122.082 208.243 122.223 208.712 122.293C209.204 122.363 209.731 122.398 210.294 122.398V125C209.989 125.047 209.673 125.082 209.345 125.105C209.087 125.129 208.782 125.141 208.43 125.141C208.079 125.164 207.727 125.176 207.376 125.176C207.024 125.176 206.673 125.164 206.321 125.141C205.97 125.117 205.653 125.082 205.372 125.035C204.575 124.871 203.954 124.52 203.509 123.98C203.063 123.441 202.723 122.844 202.489 122.187C202.255 121.508 202.102 120.852 202.032 120.219C201.985 119.586 201.962 119.094 201.962 118.742V118.32V97.6836H206.251V118.953ZM225.01 105.066C226.299 105.137 227.471 105.453 228.526 106.016C229.58 106.555 230.459 107.281 231.163 108.195C231.889 109.086 232.452 110.129 232.85 111.324C233.248 112.52 233.448 113.797 233.448 115.156C233.448 116.516 233.237 117.793 232.815 118.988C232.416 120.16 231.854 121.191 231.127 122.082C230.401 122.949 229.51 123.652 228.455 124.191C227.401 124.73 226.252 125.047 225.01 125.141V121.766C226.182 121.508 227.131 120.77 227.858 119.551C228.608 118.332 228.983 116.867 228.983 115.156C228.983 114.289 228.889 113.48 228.702 112.73C228.538 111.957 228.28 111.266 227.928 110.656C227.577 110.047 227.155 109.543 226.663 109.145C226.17 108.746 225.62 108.488 225.01 108.371V105.066ZM215.202 115.086C215.202 113.727 215.401 112.461 215.799 111.289C216.198 110.117 216.76 109.098 217.487 108.23C218.237 107.34 219.127 106.625 220.159 106.086C221.19 105.547 222.327 105.219 223.569 105.102V108.371C222.397 108.629 221.459 109.367 220.756 110.586C220.053 111.805 219.702 113.27 219.702 114.98C219.702 115.848 219.784 116.668 219.948 117.441C220.135 118.215 220.393 118.906 220.721 119.516C221.049 120.125 221.448 120.629 221.916 121.027C222.409 121.426 222.959 121.672 223.569 121.766V125.141C222.28 125.047 221.12 124.73 220.088 124.191C219.057 123.629 218.178 122.902 217.452 122.012C216.725 121.121 216.163 120.078 215.764 118.883C215.389 117.687 215.202 116.422 215.202 115.086ZM244.016 115.965C244.016 116.785 244.051 117.559 244.121 118.285C244.191 118.988 244.344 119.609 244.578 120.148C244.812 120.687 245.164 121.121 245.633 121.449C246.102 121.777 246.723 121.941 247.496 121.941C247.801 121.941 248.234 121.895 248.797 121.801C249.359 121.707 249.898 121.555 250.414 121.344V123.945C249.805 124.273 249.137 124.566 248.41 124.824C247.707 125.059 247.004 125.176 246.301 125.176C245.738 125.176 245.234 125.117 244.789 125C244.344 124.906 243.922 124.754 243.523 124.543C243.148 124.309 242.785 124.051 242.434 123.77C242.082 123.488 241.73 123.172 241.379 122.82C240.98 122.422 240.664 121.965 240.43 121.449C240.195 120.91 240.02 120.359 239.902 119.797C239.809 119.211 239.75 118.625 239.727 118.039C239.727 117.453 239.727 116.879 239.727 116.316V105.172H244.016V115.965ZM256.145 105.172V125H252.312L251.855 122.961V105.172H256.145ZM279.545 97.6836V125H275.502L275.255 122.645V97.6836H279.545ZM261.755 114.805C261.755 112.977 262.002 111.441 262.494 110.199C263.009 108.957 263.666 107.949 264.462 107.176C265.259 106.402 266.138 105.852 267.099 105.523C268.084 105.172 269.045 104.996 269.982 104.996C270.709 104.996 271.4 105.078 272.056 105.242C272.712 105.406 273.298 105.641 273.814 105.945V109.672C273.416 109.25 272.97 108.91 272.478 108.652C271.986 108.395 271.435 108.266 270.826 108.266C270.099 108.266 269.455 108.453 268.892 108.828C268.33 109.18 267.849 109.672 267.451 110.305C267.076 110.937 266.783 111.664 266.572 112.484C266.361 113.305 266.255 114.184 266.255 115.121C266.255 116.059 266.373 116.937 266.607 117.758C266.841 118.555 267.158 119.258 267.556 119.867C267.955 120.477 268.435 120.957 268.998 121.309C269.584 121.66 270.216 121.836 270.896 121.836C272.045 121.836 273.017 121.379 273.814 120.465V124.121C273.252 124.426 272.595 124.684 271.845 124.895C271.119 125.082 270.345 125.176 269.525 125.176C268.587 125.176 267.662 125.012 266.748 124.684C265.857 124.332 265.06 123.77 264.357 122.996C263.466 121.988 262.81 120.746 262.388 119.27C261.966 117.77 261.755 116.281 261.755 114.805Z" fill="url(#paint0_linear_301_7)"/>
<defs>
<linearGradient id="paint0_linear_301_7" x1="-71.5956" y1="111.561" x2="373" y2="111" gradientUnits="userSpaceOnUse">
<stop stop-color="#8F5E25"/>
<stop offset="0.505208" stop-color="#FFF9AC"/>
<stop offset="1" stop-color="#8F5E25"/>
</linearGradient>
</defs>
</svg>
